<svg id="Layer_1" data-name="Layer 1" xmlns="http://www.w3.org/2000/svg" viewBox="0 0 468 66.22"><defs><style>.cls-1{fill:#2f3a40;}</style></defs><path class="cls-1" d="M50.17,28.61A3,3,0,0,0,49,30Q41.77,41,34.57,52c-1,1.48-1,1.48-1.92,0q-7.2-11-14.41-22c-.26-.39-.38-.93-1.1-1.15v1.53c0,11,0,22,0,33,0,1.39-.38,1.66-1.67,1.64-4.76-.08-9.52-.06-14.28,0C.33,65,0,64.81,0,63.83Q0,33.08,0,2.32C0,1.49.19,1.19,1.08,1.2c5.52,0,11,.05,16.56,0,.92,0,1.21.52,1.58,1.11Q26.42,14,33.65,25.77c.63-.24.76-.83,1-1.27Q41.54,13.43,48.32,2.33a2.06,2.06,0,0,1,2-1.14c5.31.06,10.63.05,15.95,0,.93,0,1.29.17,1.29,1.22q0,30.68,0,61.35c0,1.08-.4,1.22-1.32,1.21-4.91,0-9.81-.06-14.73,0-1.18,0-1.4-.35-1.4-1.45,0-11.24,0-22.47,0-33.72Z"/><path class="cls-1" d="M215.15,33c0-10.12,0-20.24,0-30.36,0-1.11.23-1.46,1.4-1.44,7.8.05,15.59-.06,23.39,0,8.56.12,16.75,1.74,23.83,7,7.33,5.4,11,12.8,11.66,21.79.53,7.41-.79,14.39-5,20.62-4.92,7.3-12,11.26-20.46,13.17A53.71,53.71,0,0,1,238.22,65c-7.18,0-14.37,0-21.56,0-1.32,0-1.54-.4-1.54-1.61C215.17,53.27,215.15,43.14,215.15,33ZM232.66,33c0,5.06,0,10.12,0,15.18,0,.9.21,1.25,1.17,1.22,2.13-.07,4.25,0,6.38,0,4.27,0,8.33-.9,11.76-3.62,4.39-3.47,5.67-8.21,5.51-13.6a14.69,14.69,0,0,0-10.6-14.22c-4.19-1.36-8.49-.94-12.77-1.07-1.11,0-1.48.25-1.47,1.42C232.69,23.13,232.66,28,232.66,33Z"/><path class="cls-1" d="M76.81,35.05C76.87,16.63,88.4,3.26,105,.56c10.84-1.76,20.68.59,29.12,7.77A31.23,31.23,0,0,1,145.06,29.1c2.07,16.9-8.9,32.95-27.08,36.43-15.88,3-31.84-4.14-38.44-19A30.13,30.13,0,0,1,76.81,35.05Zm18-1.73a13.49,13.49,0,0,0,.65,4.87c1.95,6.28,6,10.58,12.51,11.83s12-.77,16-6.18c3.09-4.19,3.83-9,3.07-14.08a16.35,16.35,0,0,0-20-13.44C99.6,18.25,94.87,24.66,94.86,33.32Z"/><path class="cls-1" d="M284.75,33.11c0-10.13,0-20.26,0-30.38,0-1.29.36-1.54,1.59-1.54q24,.06,48,0c1.26,0,1.6.28,1.57,1.56q-.13,5.85,0,11.69c0,1.32-.24,1.77-1.69,1.76-10.17-.07-20.35,0-30.53-.07-1.25,0-1.64.31-1.58,1.58.1,2.27.1,4.56,0,6.83-.05,1.16.3,1.42,1.43,1.42,9.16-.06,18.32,0,27.48-.07,1.38,0,1.8.34,1.76,1.74-.11,3.59-.09,7.19,0,10.79,0,1.17-.32,1.41-1.43,1.4-9.22,0-18.43,0-27.65-.06-1.22,0-1.65.24-1.59,1.55.12,2.37.11,4.76,0,7.14-.05,1.23.26,1.61,1.56,1.6,10.32,0,20.65,0,31-.06,1.32,0,1.81.25,1.77,1.71-.11,4-.07,8,0,12,0,1-.24,1.29-1.26,1.28q-24.62,0-49.21,0c-1.16,0-1.17-.51-1.17-1.36Q284.77,48.39,284.75,33.11Z"/><path class="cls-1" d="M436,50.09c10.33,0,20.29,0,30.27,0,1.32,0,1.8.25,1.76,1.69-.12,4-.07,8,0,12,0,.9-.17,1.22-1.16,1.22q-27,0-53.93,0c-.95,0-1.19-.27-1.18-1.19.05-3.59,0-7.19,0-10.79a2.59,2.59,0,0,1,.82-1.86q15-16.86,30-33.71c.32-.36.62-.74,1.09-1.32h-1.74c-9.26,0-18.53,0-27.8,0-1,0-1.38-.19-1.36-1.3.07-4.1.06-8.2,0-12.3,0-.91.11-1.31,1.2-1.31q26.43,0,52.86,0c1.07,0,1.24.39,1.22,1.32,0,3.44,0,6.88,0,10.33a2.72,2.72,0,0,1-.77,2q-15,16.83-30,33.7C436.86,49,436.52,49.43,436,50.09Z"/><path class="cls-1" d="M173.9,50.09h1.85c9.52,0,19,0,28.55,0,1.11,0,1.56.16,1.53,1.44-.09,4.1-.07,8.2,0,12.3,0,.94-.26,1.17-1.19,1.17q-27,0-53.92,0c-1,0-1.18-.29-1.16-1.19q.06-5.32,0-10.63a2.53,2.53,0,0,1,.76-1.87q15.09-16.95,30.15-33.94c.28-.32.71-.57.8-1.24h-1.47c-9.16,0-18.33,0-27.49,0-1.2,0-1.64-.19-1.6-1.52.1-4,.06-8,0-12,0-1,.15-1.39,1.29-1.39q26.28,0,52.55,0c1,0,1.29.24,1.27,1.24-.07,3.5,0,7,0,10.49a2.77,2.77,0,0,1-.79,2Q190,31.86,175,48.8C174.7,49.13,174.42,49.48,173.9,50.09Z"/><path class="cls-1" d="M374.62,41.32l6.76-18.83Q385,12.43,388.62,2.36c.2-.56.23-1.16,1.1-1.16,6.12,0,12.24,0,18.58,0-1.2,3-2.34,5.82-3.48,8.64Q393.89,37,383,64.13c-.35.87-.69,1.24-1.69,1.23-4.65-.06-9.31,0-14,0-.77,0-1.26-.09-1.6-.94Q353.22,33.19,340.66,2c-.1-.22-.16-.45-.28-.79,6.39,0,12.65,0,18.92,0,.91,0,.91.67,1.1,1.17q4.14,11.47,8.24,23,2.73,7.59,5.45,15.17A1.24,1.24,0,0,0,374.62,41.32Z"/></svg>